<svg xmlns="http://www.w3.org/2000/svg" xmlns:xlink="http://www.w3.org/1999/xlink" viewBox="0 0 166.71 152.57"><defs><style>.cls-1{fill:url(#Degradado_sin_nombre_122);}.cls-2{fill:#fff;}</style><linearGradient id="Degradado_sin_nombre_122" x1="8.76" y1="150.88" x2="148.42" y2="11.22" gradientUnits="userSpaceOnUse"><stop offset="0" stop-color="#ffef26"/><stop offset="0.02" stop-color="#ffea21"/><stop offset="0.1" stop-color="#fed70f"/><stop offset="0.18" stop-color="#fdcc04"/><stop offset="0.28" stop-color="#fdc800"/><stop offset="0.42" stop-color="#fab90e"/><stop offset="0.7" stop-color="#f19132"/><stop offset="0.71" stop-color="#f18f34"/><stop offset="1" stop-color="#f29432"/></linearGradient></defs><title>Recurso 7</title><g id="Capa_2" data-name="Capa 2"><g id="Capa_1-2" data-name="Capa 1"><path class="cls-1" d="M150,19.07H83.35L66.68,0h-50C7.5,0,0,8.58,0,19.07V133.5C0,144,7.5,152.57,16.67,152.57H150c9.17,0,16.67-8.58,16.67-19.07V38.14C166.71,27.65,159.21,19.07,150,19.07Z"/><polygon class="cls-2" points="72.09 41.07 69.41 35.27 55.35 35.27 61.77 27.17 56.28 20.24 39.79 41.07 56.28 61.89 61.77 54.96 55.35 46.87 69.41 46.87 72.09 41.07"/><path class="cls-2" d="M103.82,35.27H68.5v11.6h35.32c18.1,0,32.82,13.88,32.82,30.95s-14.72,31-32.82,31v11.6c24.88,0,45.12-19.09,45.12-42.56S128.7,35.27,103.82,35.27"/><polygon class="cls-2" points="68.5 85.81 87.32 85.81 78.74 93.91 86.09 100.83 108.17 80.02 86.09 59.19 78.74 66.12 87.32 74.21 68.5 74.21 68.5 85.81"/><rect class="cls-2" x="63.24" y="46.87" width="12.28" height="101.59"/></g></g></svg>