<svg xmlns="http://www.w3.org/2000/svg" xmlns:xlink="http://www.w3.org/1999/xlink" viewBox="0 0 494.89 76.42"><defs><style>.cls-1{fill:url(#Degradado_sin_nombre_122);}.cls-2{fill:#fff;}.cls-3{fill:#706f6f;}.cls-4{fill:#f39200;}</style><linearGradient id="Degradado_sin_nombre_122" x1="4.39" y1="75.57" x2="74.34" y2="5.62" gradientUnits="userSpaceOnUse"><stop offset="0" stop-color="#ffef26"/><stop offset="0.02" stop-color="#ffea21"/><stop offset="0.1" stop-color="#fed70f"/><stop offset="0.18" stop-color="#fdcc04"/><stop offset="0.28" stop-color="#fdc800"/><stop offset="0.42" stop-color="#fab90e"/><stop offset="0.7" stop-color="#f19132"/><stop offset="0.71" stop-color="#f18f34"/><stop offset="1" stop-color="#f29432"/></linearGradient></defs><title>logo-medio</title><g id="Capa_2" data-name="Capa 2"><g id="Capa_1-2" data-name="Capa 1"><path class="cls-1" d="M75.15,9.55H41.75L33.4,0h-25C3.76,0,0,4.3,0,9.55V66.87c0,5.25,3.76,9.55,8.35,9.55h66.8c4.59,0,8.35-4.3,8.35-9.55V19.1C83.5,13.85,79.74,9.55,75.15,9.55Z"/><polygon class="cls-2" points="36.11 20.57 34.77 17.66 27.73 17.66 30.94 13.61 28.19 10.14 19.93 20.57 28.19 31 30.94 27.53 27.73 23.48 34.77 23.48 36.11 20.57"/><path class="cls-2" d="M52,17.66H34.31v5.81H52c9.07,0,16.44,7,16.44,15.51S61.07,54.48,52,54.48v5.81c12.46,0,22.6-9.56,22.6-21.31S64.46,17.66,52,17.66"/><polygon class="cls-2" points="34.31 42.98 43.74 42.98 39.44 47.04 43.12 50.51 54.18 40.08 43.12 29.65 39.44 33.12 43.74 37.17 34.31 37.17 34.31 42.98"/><path class="cls-3" d="M131.87,72.68,120.53,60.19H103.78V53.26h18.66c2.84,0,5-.76,6.41-2.28S131,47.21,131,44.24s-.75-5.16-2.24-6.56a8.88,8.88,0,0,0-6.3-2.1H98.12v37.1H90.3V27.73h32.14a19.24,19.24,0,0,1,6.84,1.14,13.76,13.76,0,0,1,8.31,8.44,19.67,19.67,0,0,1,1.11,6.8,17.33,17.33,0,0,1-2.4,9.43A13.37,13.37,0,0,1,129.46,59L143,72.68Z"/><path class="cls-3" d="M166.41,72.68a21.17,21.17,0,0,1-8.65-1.76,21.59,21.59,0,0,1-6.9-4.83,21.82,21.82,0,0,1-4.55-7.26,24.84,24.84,0,0,1-1.64-9.09,24.07,24.07,0,0,1,1.64-9,20,20,0,0,1,4.55-7,20.44,20.44,0,0,1,6.9-4.45,23.06,23.06,0,0,1,8.65-1.58h10.9a23.65,23.65,0,0,1,8.9,1.61,20.13,20.13,0,0,1,6.93,4.51,20.38,20.38,0,0,1,4.5,7,24.21,24.21,0,0,1,1.6,8.93,25,25,0,0,1-1.63,9.09,21.84,21.84,0,0,1-4.56,7.26,21.33,21.33,0,0,1-15.74,6.59Zm10.9-7.86A14.2,14.2,0,0,0,183,63.71,13.44,13.44,0,0,0,190.37,56a16.15,16.15,0,0,0,1-5.87,15.91,15.91,0,0,0-1-5.84A13.23,13.23,0,0,0,183,36.66a14.54,14.54,0,0,0-5.67-1.08h-10.9a14.15,14.15,0,0,0-5.57,1.08,13.13,13.13,0,0,0-4.4,3,13.93,13.93,0,0,0-2.9,4.58,15.84,15.84,0,0,0-1,5.87,16.14,16.14,0,0,0,1,5.87,14,14,0,0,0,2.9,4.67,13.29,13.29,0,0,0,4.4,3.06,13.82,13.82,0,0,0,5.57,1.11Z"/><path class="cls-3" d="M203.18,72.68V64.82h16.38q7.83,0,11.27-3t3.45-9.59V27.73h7.82V52.21q0,10.45-5.42,15.46t-17.12,5Z"/><path class="cls-3" d="M249.18,72.68V27.73h40v7.85H257V64.82h32.27v7.86Zm13.49-26.16h24.82v6.62H262.67Z"/><path class="cls-3" d="M316.37,72.68a21.17,21.17,0,0,1-8.65-1.76,21.59,21.59,0,0,1-6.9-4.83,21.84,21.84,0,0,1-4.56-7.26,25,25,0,0,1-1.63-9.09,24.27,24.27,0,0,1,1.63-9,20,20,0,0,1,4.56-7,20.44,20.44,0,0,1,6.9-4.45,23.06,23.06,0,0,1,8.65-1.58h24.26v7.85H316.37a14.15,14.15,0,0,0-5.57,1.08,13.07,13.07,0,0,0-4.41,3,13.9,13.9,0,0,0-2.89,4.58,15.84,15.84,0,0,0-1.05,5.87A16.15,16.15,0,0,0,303.5,56a14,14,0,0,0,2.89,4.67,13.23,13.23,0,0,0,4.41,3.06,13.65,13.65,0,0,0,5.57,1.11h24.26v7.86Z"/><polygon class="cls-3" points="361.32 72.68 361.32 35.58 344.33 35.58 344.33 27.73 386.14 27.73 386.14 35.58 369.15 35.58 369.15 72.68 361.32 72.68"/><path class="cls-4" d="M432.32,27.42H440v25.1a27.24,27.24,0,0,1-1.36,9.06,14.89,14.89,0,0,1-4.24,6.4,18.42,18.42,0,0,1-7.49,3.77,50.17,50.17,0,0,1-22.17,0A18.38,18.38,0,0,1,397.22,68a14.82,14.82,0,0,1-4.25-6.4,27.52,27.52,0,0,1-1.35-9.06V27.42h8.06v25.1a17.69,17.69,0,0,0,.84,5.81,8.63,8.63,0,0,0,2.7,4,12.09,12.09,0,0,0,5,2.26,42.76,42.76,0,0,0,15.52,0,12,12,0,0,0,5-2.26,8.65,8.65,0,0,0,2.71-4,17.71,17.71,0,0,0,.83-5.81Z"/><path class="cls-4" d="M460.53,59.88V52.27h18A8.68,8.68,0,0,0,485,50a8.39,8.39,0,0,0,2.31-6.21A8.29,8.29,0,0,0,485,37.56a8.75,8.75,0,0,0-6.42-2.29H454.86v37.1H447V27.42h31.47a19.67,19.67,0,0,1,6.93,1.14,14.55,14.55,0,0,1,5.14,3.22,13.68,13.68,0,0,1,3.2,5,19,19,0,0,1,1.11,6.68,19,19,0,0,1-1.11,6.64,14.51,14.51,0,0,1-3.2,5.16,14.32,14.32,0,0,1-5.14,3.37,18.58,18.58,0,0,1-6.93,1.21Z"/><rect class="cls-2" x="31.67" y="23.47" width="6.15" height="50.88"/></g></g></svg>