<svg xmlns="http://www.w3.org/2000/svg" xmlns:xlink="http://www.w3.org/1999/xlink" viewBox="0 0 228.34 193.82"><defs><style>.cls-1{fill:url(#Degradado_sin_nombre_122);}.cls-2{fill:#fff;}.cls-3,.cls-5{fill:#706f6f;}.cls-4{fill:#f39200;}.cls-5{font-size:32.57px;font-family:GoodTimesRg-Regular, Good Times;}</style><linearGradient id="Degradado_sin_nombre_122" x1="42.1" y1="144.49" x2="175.84" y2="10.75" gradientUnits="userSpaceOnUse"><stop offset="0" stop-color="#ffef26"/><stop offset="0.02" stop-color="#ffea21"/><stop offset="0.1" stop-color="#fed70f"/><stop offset="0.18" stop-color="#fdcc04"/><stop offset="0.28" stop-color="#fdc800"/><stop offset="0.42" stop-color="#fab90e"/><stop offset="0.7" stop-color="#f19132"/><stop offset="0.71" stop-color="#f18f34"/><stop offset="1" stop-color="#f29432"/></linearGradient></defs><title>Recurso 8</title><g id="Capa_2" data-name="Capa 2"><g id="Capa_1-2" data-name="Capa 1"><path class="cls-1" d="M177.39,18.26H113.53L97.57,0H49.68c-8.78,0-16,8.22-16,18.26V127.84c0,10,7.19,18.26,16,18.26H177.39c8.78,0,16-8.22,16-18.26V36.52C193.35,26.48,186.17,18.26,177.39,18.26Z"/><polygon class="cls-2" points="102.75 39.33 100.18 33.77 86.72 33.77 92.86 26.02 87.61 19.38 71.82 39.33 87.61 59.26 92.86 52.63 86.72 44.88 100.18 44.88 102.75 39.33"/><path class="cls-2" d="M133.13,33.77H99.31V44.88h33.82c17.33,0,31.43,13.3,31.43,29.64s-14.1,29.64-31.43,29.64v11.11c23.83,0,43.21-18.28,43.21-40.75S157,33.77,133.13,33.77"/><polygon class="cls-2" points="99.31 82.17 117.33 82.17 109.11 89.93 116.15 96.56 137.29 76.62 116.15 56.68 109.11 63.31 117.33 71.06 99.31 71.06 99.31 82.17"/><rect class="cls-2" x="94.27" y="44.88" width="11.76" height="97.28"/><path class="cls-3" d="M52.94,185.31l-5.47-6h-8.1v-3.35h9a4,4,0,0,0,3.09-1.11,4.53,4.53,0,0,0,1-3.25,4.16,4.16,0,0,0-1.08-3.17,4.26,4.26,0,0,0-3-1H36.64v17.92H32.86V163.59H48.39a9.21,9.21,0,0,1,3.3.56,6.6,6.6,0,0,1,2.47,1.58,6.91,6.91,0,0,1,1.55,2.49,9.46,9.46,0,0,1,.53,3.29,8.29,8.29,0,0,1-1.16,4.55,6.45,6.45,0,0,1-3.3,2.65l6.52,6.6Z"/><path class="cls-3" d="M69.63,185.31a10.18,10.18,0,0,1-4.18-.85,10.32,10.32,0,0,1-5.53-5.84,12,12,0,0,1-.79-4.39,11.51,11.51,0,0,1,.79-4.36,9.66,9.66,0,0,1,2.2-3.37,10,10,0,0,1,3.33-2.15,11.42,11.42,0,0,1,4.18-.76H74.9a11.47,11.47,0,0,1,4.3.78,9.72,9.72,0,0,1,3.35,2.18,10,10,0,0,1,2.17,3.36,11.57,11.57,0,0,1,.77,4.32,12.18,12.18,0,0,1-.78,4.39,10.74,10.74,0,0,1-2.21,3.51,10.28,10.28,0,0,1-7.6,3.18Zm5.27-3.79a6.87,6.87,0,0,0,2.74-.54,6.65,6.65,0,0,0,2.16-1.48,6.77,6.77,0,0,0,1.41-2.26,8.26,8.26,0,0,0,0-5.66,6.37,6.37,0,0,0-3.57-3.67,7,7,0,0,0-2.74-.52H69.63a6.79,6.79,0,0,0-2.69.52,6.35,6.35,0,0,0-3.52,3.66,7.63,7.63,0,0,0-.51,2.84,7.73,7.73,0,0,0,.51,2.83,6.72,6.72,0,0,0,1.39,2.26A6.52,6.52,0,0,0,66.94,181a6.63,6.63,0,0,0,2.69.54Z"/><path class="cls-3" d="M87.4,185.31v-3.79h7.91q3.78,0,5.45-1.47c1.11-1,1.66-2.52,1.66-4.63V163.59h3.78v11.83q0,5.06-2.62,7.47t-8.27,2.42Z"/><path class="cls-3" d="M109.62,185.31V163.59H129v3.8H113.4v14.13H129v3.79Zm6.52-12.64h12v3.2h-12Z"/><path class="cls-3" d="M142.09,185.31a10.14,10.14,0,0,1-4.18-.85,10.29,10.29,0,0,1-5.54-5.84,12.18,12.18,0,0,1-.79-4.39,11.71,11.71,0,0,1,.79-4.36,9.8,9.8,0,0,1,2.2-3.37,10.15,10.15,0,0,1,3.34-2.15,11.38,11.38,0,0,1,4.18-.76h11.72v3.8H142.09a6.84,6.84,0,0,0-2.7.52,6.3,6.3,0,0,0-2.12,1.45,6.62,6.62,0,0,0-1.4,2.21,7.6,7.6,0,0,0-.51,2.84,7.73,7.73,0,0,0,.51,2.83,6.74,6.74,0,0,0,1.4,2.26,6.38,6.38,0,0,0,2.12,1.48,6.68,6.68,0,0,0,2.7.54h11.72v3.79Z"/><polygon class="cls-3" points="163.81 185.31 163.81 167.39 155.59 167.39 155.59 163.59 175.8 163.59 175.8 167.39 167.59 167.39 167.59 185.31 163.81 185.31"/><path class="cls-4" d="M198.11,163.44h3.69v12.13a13.46,13.46,0,0,1-.65,4.38,7.2,7.2,0,0,1-2.06,3.09,8.9,8.9,0,0,1-3.61,1.82,20.83,20.83,0,0,1-5.37.6,20.58,20.58,0,0,1-5.34-.6,8.88,8.88,0,0,1-3.62-1.82A7.18,7.18,0,0,1,179.1,180a13.19,13.19,0,0,1-.66-4.38V163.44h3.9v12.13a8.61,8.61,0,0,0,.4,2.81,4.23,4.23,0,0,0,1.31,1.91,5.76,5.76,0,0,0,2.43,1.09,20.26,20.26,0,0,0,7.5,0,5.77,5.77,0,0,0,2.42-1.09,4.16,4.16,0,0,0,1.31-1.91,8.61,8.61,0,0,0,.4-2.81Z"/><path class="cls-4" d="M211.74,179.13v-3.68h8.69a4.19,4.19,0,0,0,3.11-1.12,4.09,4.09,0,0,0,1.11-3,4,4,0,0,0-1.11-3,4.25,4.25,0,0,0-3.11-1.1H209v17.92h-3.78V163.44h15.21a9.39,9.39,0,0,1,3.34.56,6.57,6.57,0,0,1,4,4,10,10,0,0,1,0,6.44,7.18,7.18,0,0,1-1.55,2.5,6.94,6.94,0,0,1-2.49,1.62,9,9,0,0,1-3.34.59Z"/><text class="cls-5" transform="translate(0 187.27)">p</text></g></g></svg>